<svg width="30" height="31" viewBox="0 0 30 31" fill="none" xmlns="http://www.w3.org/2000/svg">
<path d="M21.25 5.02276C21.25 4.85592 21.1842 4.6959 21.0669 4.57793C20.9497 4.45995 20.7908 4.39367 20.625 4.39367H17.5C15.9264 4.31477 14.3857 4.86598 13.2147 5.92687C12.0436 6.98775 11.3372 8.47207 11.25 10.0555V13.4526H8.125C7.95924 13.4526 7.80027 13.5189 7.68306 13.6369C7.56585 13.7548 7.5 13.9148 7.5 14.0817V17.353C7.5 17.5198 7.56585 17.6798 7.68306 17.7978C7.80027 17.9158 7.95924 17.9821 8.125 17.9821H11.25V26.4119C11.25 26.5787 11.3158 26.7388 11.4331 26.8567C11.5503 26.9747 11.7092 27.041 11.875 27.041H15.625C15.7908 27.041 15.9497 26.9747 16.0669 26.8567C16.1842 26.7388 16.25 26.5787 16.25 26.4119V17.9821H19.525C19.664 17.9841 19.7997 17.9394 19.9106 17.8551C20.0215 17.7708 20.1014 17.6516 20.1375 17.5165L21.0375 14.2453C21.0624 14.1523 21.0657 14.0548 21.0473 13.9604C21.0288 13.8659 20.9891 13.777 20.9311 13.7004C20.8732 13.6239 20.7985 13.5617 20.713 13.5187C20.6274 13.4758 20.5331 13.4531 20.4375 13.4526H16.25V10.0555C16.2811 9.74407 16.4264 9.45549 16.6575 9.2461C16.8887 9.03672 17.189 8.92157 17.5 8.92313H20.625C20.7908 8.92313 20.9497 8.85685 21.0669 8.73888C21.1842 8.6209 21.25 8.46089 21.25 8.29404V5.02276Z" fill="white"/>
</svg>
