<svg width="32" height="35" viewBox="0 0 32 35" fill="none" xmlns="http://www.w3.org/2000/svg">
<g filter="url(#filter0_d_16_232)">
<path d="M19.937 11.0732C18.979 11.0699 18.0296 11.2567 17.1434 11.6231C16.2572 11.9894 15.4514 12.5281 14.7722 13.2082C14.093 13.8884 13.5537 14.6966 13.1852 15.5868C12.8167 16.4769 12.6261 17.4315 12.6245 18.3958V25.7939C12.6245 26.0942 12.743 26.3823 12.954 26.5946C13.165 26.807 13.4511 26.9263 13.7495 26.9263H16.3745C16.6729 26.9263 16.959 26.807 17.17 26.5946C17.381 26.3823 17.4995 26.0942 17.4995 25.7939V18.3958C17.4993 18.0528 17.5708 17.7136 17.7096 17.4004C17.8483 17.0871 18.051 16.8068 18.3046 16.5776C18.5582 16.3485 18.8569 16.1758 19.1812 16.0707C19.5055 15.9655 19.8483 15.9304 20.187 15.9675C20.7945 16.0445 21.3528 16.3433 21.756 16.8071C22.1592 17.2709 22.3793 17.8676 22.3745 18.4839V25.7939C22.3745 26.0942 22.493 26.3823 22.704 26.5946C22.915 26.807 23.2011 26.9263 23.4995 26.9263H26.1245C26.4229 26.9263 26.709 26.807 26.92 26.5946C27.131 26.3823 27.2495 26.0942 27.2495 25.7939V18.3958C27.2479 17.4315 27.0573 16.4769 26.6888 15.5868C26.3203 14.6966 25.781 13.8884 25.1018 13.2082C24.4226 12.5281 23.6168 11.9894 22.7306 11.6231C21.8444 11.2567 20.8951 11.0699 19.937 11.0732Z" fill="white"/>
<path d="M9.25 12.2056H5.875C5.25368 12.2056 4.75 12.7125 4.75 13.3379V25.794C4.75 26.4193 5.25368 26.9263 5.875 26.9263H9.25C9.87132 26.9263 10.375 26.4193 10.375 25.794V13.3379C10.375 12.7125 9.87132 12.2056 9.25 12.2056Z" fill="white"/>
<path d="M7.5625 9.94088C9.1158 9.94088 10.375 8.67344 10.375 7.10997C10.375 5.5465 9.1158 4.27905 7.5625 4.27905C6.0092 4.27905 4.75 5.5465 4.75 7.10997C4.75 8.67344 6.0092 9.94088 7.5625 9.94088Z" fill="white"/>
</g>
<defs>
<filter id="filter0_d_16_232" x="0.75" y="4.27905" width="30.4995" height="30.6472" filterUnits="userSpaceOnUse" color-interpolation-filters="sRGB">
<feFlood flood-opacity="0" result="BackgroundImageFix"/>
<feColorMatrix in="SourceAlpha" type="matrix" values="0 0 0 0 0 0 0 0 0 0 0 0 0 0 0 0 0 0 127 0" result="hardAlpha"/>
<feOffset dy="4"/>
<feGaussianBlur stdDeviation="2"/>
<feComposite in2="hardAlpha" operator="out"/>
<feColorMatrix type="matrix" values="0 0 0 0 0 0 0 0 0 0 0 0 0 0 0 0 0 0 0.25 0"/>
<feBlend mode="normal" in2="BackgroundImageFix" result="effect1_dropShadow_16_232"/>
<feBlend mode="normal" in="SourceGraphic" in2="effect1_dropShadow_16_232" result="shape"/>
</filter>
</defs>
</svg>
