<svg width="30" height="31" viewBox="0 0 30 31" fill="none" xmlns="http://www.w3.org/2000/svg">
<path d="M16.25 10.1279C17.2446 10.1279 18.1984 10.5256 18.9017 11.2335C19.6049 11.9413 20 12.9014 20 13.9025C20 14.2362 20.1317 14.5562 20.3661 14.7922C20.6005 15.0281 20.9185 15.1607 21.25 15.1607C21.5815 15.1607 21.8995 15.0281 22.1339 14.7922C22.3683 14.5562 22.5 14.2362 22.5 13.9025C22.5 12.234 21.8415 10.6339 20.6694 9.45414C19.4973 8.27436 17.9076 7.61157 16.25 7.61157C15.9185 7.61157 15.6005 7.74413 15.3661 7.98009C15.1317 8.21604 15 8.53607 15 8.86976C15 9.20345 15.1317 9.52347 15.3661 9.75943C15.6005 9.99538 15.9185 10.1279 16.25 10.1279Z" fill="white"/>
<path d="M16.25 5.0951C18.5706 5.0951 20.7962 6.02301 22.4372 7.6747C24.0781 9.32639 25 11.5666 25 13.9024C25 14.2361 25.1317 14.5561 25.3661 14.7921C25.6005 15.028 25.9185 15.1606 26.25 15.1606C26.5815 15.1606 26.8995 15.028 27.1339 14.7921C27.3683 14.5561 27.5 14.2361 27.5 13.9024C27.5 10.8992 26.3147 8.01896 24.205 5.89536C22.0952 3.77176 19.2337 2.57874 16.25 2.57874C15.9185 2.57874 15.6005 2.71129 15.3661 2.94725C15.1317 3.1832 15 3.50323 15 3.83692C15 4.17061 15.1317 4.49064 15.3661 4.72659C15.6005 4.96255 15.9185 5.0951 16.25 5.0951Z" fill="white"/>
<path d="M27.1875 20.0801C27.1187 19.8781 27.0001 19.6971 26.8426 19.554C26.6852 19.4109 26.4941 19.3105 26.2875 19.2623L18.7875 17.5386C18.5839 17.4921 18.372 17.4977 18.1711 17.5548C17.9703 17.612 17.7868 17.7188 17.6375 17.8657C17.4625 18.0292 17.45 18.0418 16.6375 19.602C13.9415 18.3515 11.7812 16.1682 10.55 13.4495C12.1375 12.6442 12.15 12.6442 12.3125 12.4555C12.4584 12.3052 12.5646 12.1205 12.6213 11.9183C12.6781 11.7162 12.6837 11.5029 12.6375 11.298L10.925 3.83692C10.8771 3.62894 10.7773 3.43665 10.6352 3.27817C10.493 3.11969 10.3132 3.00023 10.1125 2.93103C9.82058 2.82608 9.51914 2.75023 9.2125 2.70455C8.89656 2.63082 8.57417 2.58867 8.25 2.57874C6.725 2.57874 5.26247 3.1885 4.18414 4.2739C3.1058 5.35929 2.5 6.8314 2.5 8.36638C2.50661 13.5032 4.53686 18.4277 8.1455 22.06C11.7541 25.6922 16.6466 27.7358 21.75 27.7424C22.5051 27.7424 23.2528 27.5927 23.9504 27.3019C24.648 27.011 25.2819 26.5847 25.8159 26.0473C26.3498 25.5098 26.7733 24.8718 27.0623 24.1696C27.3513 23.4674 27.5 22.7148 27.5 21.9548C27.5004 21.6345 27.4753 21.3148 27.425 20.9986C27.3725 20.686 27.293 20.3787 27.1875 20.0801Z" fill="white"/>
</svg>
