<svg width="35" height="31" viewBox="0 0 35 31" fill="none" xmlns="http://www.w3.org/2000/svg">
<path d="M6.34547 30.6989C8.19384 30.7612 10.0359 30.4498 11.7626 29.7833C13.4894 29.1168 15.066 28.1087 16.3991 26.8184C17.7322 25.5282 18.7948 23.9821 19.5242 22.2715C20.2535 20.5608 20.6348 18.7204 20.6455 16.8589C21.4925 15.8038 22.1215 14.5889 22.4955 13.2856C22.5234 13.1827 22.5211 13.0738 22.489 12.9721C22.4568 12.8704 22.3962 12.7802 22.3143 12.7124C22.2324 12.6446 22.1328 12.602 22.0274 12.5899C21.9221 12.5778 21.8155 12.5965 21.7205 12.644C21.2773 12.8587 20.7784 12.928 20.294 12.8423C19.8097 12.7565 19.3642 12.5199 19.0205 12.1659C18.5817 11.6822 18.0509 11.2921 17.4595 11.0187C16.8682 10.7453 16.2283 10.5941 15.5779 10.5742C14.9275 10.5542 14.2797 10.6659 13.6729 10.9026C13.0661 11.1392 12.5127 11.4961 12.0455 11.952C11.4057 12.5756 10.9371 13.3552 10.6852 14.215C10.4333 15.0749 10.4067 15.9856 10.608 16.8589C6.42047 17.1105 3.54547 15.11 1.24547 12.3672C1.17638 12.2884 1.08599 12.2316 0.985353 12.2037C0.884714 12.1758 0.778178 12.178 0.678755 12.21C0.579333 12.242 0.491326 12.3025 0.425482 12.384C0.359638 12.4656 0.318806 12.5646 0.307974 12.6691C-0.130189 15.1156 0.185886 17.6384 1.21375 19.8987C2.24161 22.1591 3.93203 24.0487 6.05797 25.3139C4.63252 26.9594 2.63073 27.9871 0.470474 28.1825C0.354739 28.2019 0.247901 28.2571 0.164913 28.3406C0.0819253 28.4241 0.0269405 28.5315 0.00765394 28.648C-0.0116326 28.7645 0.0057446 28.8841 0.0573535 28.9902C0.108962 29.0962 0.19222 29.1834 0.295474 29.2394C2.17487 30.1848 4.24451 30.6841 6.34547 30.6989Z" fill="white"/>
</svg>
